<svg xmlns="http://www.w3.org/2000/svg" width="1120" height="1120" viewBox="0 0 1120 1120" role="img" aria-labelledby="title desc"><title id="title">HTTP 边界：输入经过哪些检查才成为命令</title><desc id="desc">中间是受理路径　两侧是拒绝与重放出口　校验职责与各路由实际顺序分别理解</desc><defs><marker id="arrow" markerWidth="8" markerHeight="8" refX="7" refY="4" orient="auto"><path d="M0 0L7 4L0 8" fill="#52758a"/></marker><style>text{font-family:'Microsoft YaHei','Noto Sans SC',sans-serif;fill:#253b49}.title{font-size:25px;font-weight:700}.subtitle{font-size:16px;fill:#607581}.head{font-size:19px;font-weight:700}.body{font-size:16px}.label{font-size:14px;fill:#405e70}.group{font-size:16px;font-weight:700;fill:#4c6b7d}</style></defs><rect width="1120" height="1120" fill="#f8fafb" rx="16"/>
<text x="560" y="43" text-anchor="middle" class="title"><tspan x="560" dy="0">HTTP 边界：输入经过哪些检查才成为命令</tspan></text>
<text x="560" y="74" text-anchor="middle" class="subtitle"><tspan x="560" dy="0">中间是受理路径　两侧是拒绝与重放出口　校验职责与各路由实际顺序分别理解</tspan></text>
<path d="M560 194V235" fill="none" stroke="#52758a" stroke-width="1.8"  marker-end="url(#arrow)"/>
<path d="M410 285H325" fill="none" stroke="#52758a" stroke-width="1.8"  marker-end="url(#arrow)"/>
<rect x="353" y="251" width="28" height="23" rx="4" fill="#f8fafb"/>
<text x="367" y="267" text-anchor="middle" class="label"><tspan x="367" dy="0">否</tspan></text>
<path d="M560 335V389" fill="none" stroke="#52758a" stroke-width="1.8"  marker-end="url(#arrow)"/>
<rect x="568" y="349" width="28" height="23" rx="4" fill="#f8fafb"/>
<text x="582" y="365" text-anchor="middle" class="label"><tspan x="582" dy="0">是</tspan></text>
<path d="M710 439H795" fill="none" stroke="#52758a" stroke-width="1.8"  marker-end="url(#arrow)"/>
<rect x="723" y="404" width="56" height="23" rx="4" fill="#f8fafb"/>
<text x="751" y="420" text-anchor="middle" class="label"><tspan x="751" dy="0">不合法</tspan></text>
<path d="M560 489V543" fill="none" stroke="#52758a" stroke-width="1.8"  marker-end="url(#arrow)"/>
<rect x="563" y="501" width="42" height="23" rx="4" fill="#f8fafb"/>
<text x="584" y="517" text-anchor="middle" class="label"><tspan x="584" dy="0">允许</tspan></text>
<path d="M410 593H325" fill="none" stroke="#52758a" stroke-width="1.8"  marker-end="url(#arrow)"/>
<rect x="351" y="560" width="28" height="23" rx="4" fill="#f8fafb"/>
<text x="365" y="576" text-anchor="middle" class="label"><tspan x="365" dy="0">否</tspan></text>
<path d="M560 643V697" fill="none" stroke="#52758a" stroke-width="1.8"  marker-end="url(#arrow)"/>
<rect x="567" y="655" width="28" height="23" rx="4" fill="#f8fafb"/>
<text x="581" y="671" text-anchor="middle" class="label"><tspan x="581" dy="0">是</tspan></text>
<path d="M710 747H753V700H795" fill="none" stroke="#52758a" stroke-width="1.8"  marker-end="url(#arrow)"/>
<rect x="723" y="714" width="56" height="23" rx="4" fill="#f8fafb"/>
<text x="751" y="730" text-anchor="middle" class="label"><tspan x="751" dy="0">已存在</tspan></text>
<path d="M753 747V827H795" fill="none" stroke="#52758a" stroke-width="1.8"  marker-end="url(#arrow)"/>
<rect x="716" y="787" width="70" height="23" rx="4" fill="#f8fafb"/>
<text x="751" y="803" text-anchor="middle" class="label"><tspan x="751" dy="0">内容不同</tspan></text>
<path d="M560 797V866" fill="none" stroke="#52758a" stroke-width="1.8"  marker-end="url(#arrow)"/>
<rect x="563" y="817" width="56" height="23" rx="4" fill="#f8fafb"/>
<text x="591" y="833" text-anchor="middle" class="label"><tspan x="591" dy="0">不存在</tspan></text>
<path d="M560 961V1005" fill="none" stroke="#52758a" stroke-width="1.8"  marker-end="url(#arrow)"/>
<rect x="400" y="120" width="320" height="74" rx="10" fill="#e8eff5" stroke="#b8cbd7"/>
<text x="560" y="150.5" text-anchor="middle" class="head"><tspan x="560" dy="0">接收请求</tspan></text>
<text x="560" y="180.5" text-anchor="middle" class="body"><tspan x="560" dy="0">消息 · 请求键 · 凭据</tspan></text>
<path d="M560 235L710 285L560 335L410 285Z" fill="#e8eff5" stroke="#b8cbd7"/>
<text x="560" y="292.5" text-anchor="middle" class="head"><tspan x="560" dy="0">有效身份？</tspan></text>
<path d="M560 389L710 439L560 489L410 439Z" fill="#e8eff5" stroke="#b8cbd7"/>
<text x="560" y="446.5" text-anchor="middle" class="head"><tspan x="560" dy="0">结构与角色合法？</tspan></text>
<path d="M560 543L710 593L560 643L410 593Z" fill="#e8eff5" stroke="#b8cbd7"/>
<text x="560" y="600.5" text-anchor="middle" class="head"><tspan x="560" dy="0">资源与状态允许？</tspan></text>
<path d="M560 697L710 747L560 797L410 747Z" fill="#e8eff5" stroke="#b8cbd7"/>
<text x="560" y="754.5" text-anchor="middle" class="head"><tspan x="560" dy="0">请求键已存在？</tspan></text>
<rect x="65" y="248" width="260" height="74" rx="10" fill="#fff2d8" stroke="#b8cbd7"/>
<text x="195" y="292.5" text-anchor="middle" class="head"><tspan x="195" dy="0">401 无有效身份</tspan></text>
<rect x="795" y="402" width="260" height="74" rx="10" fill="#fff2d8" stroke="#b8cbd7"/>
<text x="925" y="432.5" text-anchor="middle" class="head"><tspan x="925" dy="0">400 / 403</tspan></text>
<text x="925" y="462.5" text-anchor="middle" class="body"><tspan x="925" dy="0">字段或角色不允许</tspan></text>
<rect x="65" y="556" width="260" height="74" rx="10" fill="#fff2d8" stroke="#b8cbd7"/>
<text x="195" y="586.5" text-anchor="middle" class="head"><tspan x="195" dy="0">403 / 409</tspan></text>
<text x="195" y="616.5" text-anchor="middle" class="body"><tspan x="195" dy="0">归属或业务状态冲突</tspan></text>
<rect x="795" y="662" width="260" height="75" rx="10" fill="#e5f0e9" stroke="#b8cbd7"/>
<text x="925" y="693" text-anchor="middle" class="head"><tspan x="925" dy="0">同键同参</tspan></text>
<text x="925" y="723" text-anchor="middle" class="body"><tspan x="925" dy="0">返回原命令，不重复写</tspan></text>
<rect x="795" y="790" width="260" height="75" rx="10" fill="#fff2d8" stroke="#b8cbd7"/>
<text x="925" y="821" text-anchor="middle" class="head"><tspan x="925" dy="0">同键异参</tspan></text>
<text x="925" y="851" text-anchor="middle" class="body"><tspan x="925" dy="0">409 拒绝冲突</tspan></text>
<rect x="400" y="866" width="320" height="95" rx="10" fill="#e5f0e9" stroke="#b8cbd7"/>
<text x="560" y="895.5" text-anchor="middle" class="head"><tspan x="560" dy="0">同事务受理</tspan></text>
<text x="560" y="925.5" text-anchor="middle" class="body"><tspan x="560" dy="0">命令 · 任务 · 冻结配置</tspan><tspan x="560" dy="23">成功返回 202</tspan></text>
<rect x="400" y="1005" width="320" height="63" rx="10" fill="#e8eff5" stroke="#b8cbd7"/>
<text x="560" y="1030" text-anchor="middle" class="head"><tspan x="560" dy="0">读接口与事件投影</tspan></text>
<text x="560" y="1060" text-anchor="middle" class="body"><tspan x="560" dy="0">再次校验归属和字段</tspan></text>
<text x="560" y="1097" text-anchor="middle" class="label"><tspan x="560" dy="0">202 只表示受理　入口关闭或依赖不可用可返回 503　客户输入不能自行授予角色或金额</tspan></text>
</svg>
